/* XPM */
static char *_20159aed514414884a9195a7b970d83SMWm7dIwrYXNaSgI[] = {
/* columns rows colors chars-per-pixel */
"64 64 152 2 ",
"   c None",
".  c black",
"X  c #010101",
"o  c #020202",
"O  c #040404",
"+  c gray2",
"@  c #070707",
"#  c gray3",
"$  c #090909",
"%  c #0B0B0B",
"&  c gray5",
"*  c #0E0E0E",
"=  c gray11",
"-  c #1E1E1E",
";  c gray12",
":  c gray13",
">  c #252525",
",  c #272727",
"<  c gray16",
"1  c gray17",
"2  c gray20",
"3  c gray21",
"4  c #373737",
"5  c gray22",
"6  c #393939",
"7  c gray25",
"8  c #444444",
"9  c #4B4B4B",
"0  c #4E4E4E",
"q  c gray33",
"w  c #565656",
"e  c gray37",
"r  c gray38",
"t  c #656565",
"y  c #6A6A6A",
"u  c #6C6C6F",
"i  c #6D6D6F",
"p  c #6B6B70",
"a  c #6B6D70",
"s  c #6C6C70",
"d  c #6D6C70",
"f  c #6C6D70",
"g  c #6D6D70",
"h  c #6C6C71",
"j  c #6D6C71",
"k  c #6D6D71",
"l  c #6C6E71",
"z  c #6D6E71",
"x  c #6E6E71",
"c  c #6D6D72",
"v  c #6E6E72",
"b  c #6F6F73",
"n  c #717171",
"m  c #727272",
"M  c #747474",
"N  c #747478",
"B  c #77777A",
"V  c gray47",
"C  c #797979",
"Z  c #7B7B7B",
"A  c #79787C",
"S  c #7C7C7C",
"D  c gray49",
"F  c #7F7F83",
"G  c gray51",
"H  c #808084",
"J  c #838487",
"K  c #868689",
"L  c #87878A",
"P  c #87878B",
"I  c #88888B",
"U  c #8A898D",
"Y  c gray55",
"T  c #8F8F92",
"R  c #909090",
"E  c gray57",
"W  c #939393",
"Q  c #919194",
"!  c #939295",
"~  c #939496",
"^  c #97979A",
"/  c #98979B",
"(  c #97989A",
")  c gray60",
"_  c gray61",
"`  c #9D9D9D",
"'  c #9E9EA1",
"]  c #A0A0A0",
"[  c #A2A2A2",
"{  c #A3A3A5",
"}  c #A7A7A7",
"|  c gray66",
" . c #AFAFAF",
".. c #AEAEB0",
"X. c #B9B9B9",
"o. c #BABBBC",
"O. c #BBBBBD",
"+. c gray",
"@. c gray75",
"#. c #C0BFC1",
"$. c #C1C1C1",
"%. c #C2C1C3",
"&. c #C3C3C3",
"*. c #C4C4C5",
"=. c #C8C8C8",
"-. c #C8C8C9",
";. c #CACACB",
":. c #CBCBCB",
">. c #CBCCCD",
",. c gray80",
"<. c #D4D3D5",
"1. c gray83",
"2. c #D4D4D5",
"3. c #D5D4D6",
"4. c gray84",
"5. c #D7D7D7",
"6. c #D8D8D8",
"7. c gray86",
"8. c #DBDBDC",
"9. c #DDDDDE",
"0. c gray87",
"q. c #DEDEDF",
"w. c #DFDFDF",
"e. c #DFDFE0",
"r. c #E1E1E1",
"t. c #E2E2E2",
"y. c #E3E3E4",
"u. c #E4E4E4",
"i. c gray90",
"p. c #E5E5E6",
"a. c gray91",
"s. c #E9E9E9",
"d. c gray92",
"f. c #ECECEC",
"g. c gray93",
"h. c #EEEEEE",
"j. c #F1F1F1",
"k. c gray95",
"l. c #F3F3F3",
"z. c #F5F6F6",
"x. c gray97",
"c. c #F7F8F8",
"v. c #F8F8F8",
"b. c #F9F9F9",
"n. c gray98",
"m. c #FBFBFB",
"M. c #FBFBFC",
"N. c gray99",
"B. c #FCFCFD",
"V. c #FDFDFD",
"C. c #FEFEFE",
"Z. c white",
/* pixels */
"                                                                                                                                ",
"                                                                                                                                ",
"                                                                                                                                ",
"                                                        k i k k k k k k                                                         ",
"                                              k k k k k k k k k k k k k k k k k i                                               ",
"                                          k k k k k k k k k k k k k k k k k k k k k k                                           ",
"                                      k k k k k k k k k k k k k k k k k k k k k k k k k k                                       ",
"                                  k k k k k k k k k k k k k k k k k k k k k k k k k k k k k k                                   ",
"                              p k k k k k k k k k k k k k k k k k k k k k k k k k k k k k k k k k                               ",
"                            k k k k k k k k k k k k k k k k k k k k k k k k k k k k k k k k k k k k                             ",
"                          k k k k k k k k k k k k k k k k k k k k k k k k k k k k k k k k k k k k k k                           ",
"                        k k k k k k k k k k k k k k k k k k k k k k k k k k k k k k k k k k k k k k k k                         ",
"                      k k k k k k k k k k k k k k k k k k k k k k k k k k k k k k k k k k k k k k k k k k                       ",
"                    k k k k k k k k k k k k k k k k k k k k k k k k k k k k k k k k k k k k k k k k k k k k                     ",
"                  k k k k k k k k k k k k k k k k k k k k k k k k k k k k k k k k k k k k k k k k k k k k k k                   ",
"                a m.M.M.M.M.M.M.M.M.M.M.M.M.M.M.M.M.M.M.M.M.m.m.M.M.M.M.M.M.M.M.M.M.M.M.M.M.M.M.M.M.M.m.M.M.M.k                 ",
"                k Z.Z.Z.Z.Z.Z.Z.Z.Z.Z.Z.Z.Z.Z.Z.Z.Z.Z.Z.Z.Z.Z.Z.Z.Z.Z.Z.Z.Z.Z.Z.Z.Z.Z.Z.Z.Z.Z.Z.Z.Z.Z.Z.Z.Z.Z.k                 ",
"              k k Z.Z.Z.Z.Z.Z.Z.Z.Z.Z.Z.Z.Z.Z.Z.Z.Z.Z.Z.Z.Z.Z.Z.Z.Z.Z.Z.Z.Z.Z.Z.Z.Z.Z.Z.Z.Z.Z.Z.Z.Z.Z.Z.Z.Z.Z.k k               ",
"              k k Z.Z.Z.Z.Z.Z.Z.Z.Z.Z.Z.Z.Z.Z.Z.Z.Z.Z.Z.Z.Z.Z.Z.Z.Z.Z.Z.Z.Z.Z.Z.Z.Z.Z.Z.Z.Z.Z.Z.Z.Z.Z.Z.Z.Z.Z.k k               ",
"            k k k Z.Z.Z.Z.Z.Z.Z.Z.Z.Z.Z.Z.Z.Z.Z.Z.Z.5.H 5 @ X X X X 1 y +.Z.Z.Z.Z.Z.Z.Z.Z.Z.Z.Z.Z.Z.Z.Z.Z.Z.Z.k k k             ",
"            k k k Z.Z.Z.Z.Z.Z.Z.Z.Z.Z.Z.Z.Z.Z.Z.n X X X X X X X X X X X X X 6 Z.Z.Z.Z.Z.Z.Z.Z.Z.Z.Z.Z.Z.Z.Z.Z.k k k             ",
"          k k k k m.Z.Z.Z.Z.Z.Z.Z.Z.Z.Z.Z.Z.Z.X X X X X X X X X X X X X X X X X 7.Z.Z.Z.Z.Z.Z.Z.Z.Z.Z.Z.Z.Z.Z.k k k k           ",
"          k k k k r.Z.Z.Z.Z.Z.Z.Z.Z.Z.Z.Z.Z.X X X X X X X +.a.f.r.Z X X X X X X X Z.Z.Z.Z.Z.Z.Z.Z.Z.Z.Z.Z.Z.f.k k k k           ",
"        i k k k k #.Z.Z.Z.Z.Z.Z.Z.Z.Z.Z.Z.Z X X X X X @ Z.Z.Z.Z.Z.Z.j.X X X X X X S Z.Z.Z.Z.Z.Z.Z.Z.Z.Z.Z.Z.>.k k k k k         ",
"        k k k k k ( Z.Z.Z.Z.Z.Z.Z.Z.Z.Z.Z.1 X X X X X q Z.Z.Z.Z.Z.Z.Z.r X X X X X 1 Z.Z.Z.Z.Z.Z.Z.Z.Z.Z.Z.Z.{ k k k k p         ",
"        k k k k k H Z.Z.Z.Z.Z.Z.Z.Z.Z.Z.Z.1 X X X X X ; Z.Z.Z.Z.Z.Z.Z.&.X X X X X 0 Z.Z.Z.Z.Z.Z.Z.Z.Z.Z.Z.Z.K k k k k k         ",
"        k k k k k M Z.Z.Z.Z.Z.Z.Z.Z.Z.Z.Z.n X X X X X X &.Z.Z.Z.Z.Z.Z.3.X X X X X u.Z.Z.Z.Z.Z.Z.Z.Z.Z.Z.Z.Z.N k k k k k         ",
"        k k k k k k Z.Z.Z.Z.Z.Z.Z.Z.Z.Z.Z.Z.X X X X X X X ] Z.Z.Z.Z.Z.w.3 5 5 3 5 Z.Z.Z.Z.Z.Z.Z.Z.Z.Z.Z.Z.Z.k k k k k k         ",
"      k k k k k k k Z.Z.Z.Z.Z.Z.Z.Z.Z.Z.Z.Z.X.X X X X X X X 3 Z.Z.Z.Z.Z.Z.Z.Z.Z.Z.Z.Z.Z.Z.Z.Z.Z.Z.Z.Z.Z.Z.Z.k k k k k k a       ",
"      u k k k k k k 3.Z.Z.Z.Z.Z.Z.Z.Z.Z.Z.Z.Z.] X X X X X X X X w.Z.Z.Z.Z.Z.Z.Z.Z.Z.Z.Z.Z.Z.Z.Z.Z.Z.Z.Z.Z.e.k k k k k k k       ",
"      k k k k k k k / Z.Z.Z.Z.Z.Z.Z.Z.Z.Z.Z.Z.Z.1.X X X X X X X X q Z.Z.Z.Z.Z.Z.Z.Z.Z.Z.Z.Z.Z.Z.Z.Z.Z.Z.Z.' k k k k k k k       ",
"      k k k k k k k N Z.Z.Z.Z.Z.Z.Z.Z.Z.Z.Z.Z.Z.Z.m.& X X X X X X X X Z.Z.Z.Z.Z.Z.Z.Z.Z.Z.Z.Z.Z.Z.Z.Z.Z.Z.A k k k k k k k       ",
"      k k k k k k k k Z.Z.Z.Z.Z.Z.Z.Z.Z.Z.Z.Z.Z.Z.Z.Z.Y X X X X X X X X _ Z.Z.Z.Z.Z.Z.Z.Z.Z.Z.Z.Z.Z.Z.Z.Z.k k k k k k k k       ",
"      k k k k k k k k <.Z.Z.Z.Z.Z.Z.Z.Z.Z.Z.Z.Z.Z.Z.Z.Z.m.& X X X X X X X ; m.Z.Z.Z.Z.Z.Z.Z.Z.Z.Z.Z.Z.Z.w.k k k k k k k k       ",
"      k k k k k k k k T Z.Z.Z.Z.Z.Z.Z.Z.Z.Z.Z.Z.Z.Z.Z.Z.Z.Z.t X X X X X X X X m.Z.Z.Z.Z.Z.Z.Z.Z.Z.Z.Z.Z.^ k k k k k k k k       ",
"      k k k k k k k k k Z.Z.Z.Z.Z.Z.Z.Z.Z.Z.Z.Z.Z.Z.Z.Z.Z.Z.Z.u.X X X X X X X X Z.Z.Z.Z.Z.Z.Z.Z.Z.Z.Z.Z.k k k k k k k k k       ",
"        k k k k k k k k 8.Z.Z.Z.Z.Z.Z.Z.Z.Z.Z.Z.Z.Z.Z.Z.Z.Z.Z.Z.Z.; X X X X X X X Z.Z.Z.Z.Z.Z.Z.Z.Z.Z.y.k k k k k k k k         ",
"        k k k k k k k k K Z.Z.Z.Z.Z.Z.Z.Z.Y X X X X X Z.Z.Z.Z.Z.Z.Z., X X X X X X Z Z.Z.Z.Z.Z.Z.Z.Z.Z.Q k k k k k k k k         ",
"        k k k k k k k k k N.Z.Z.Z.Z.Z.Z.Z.= X X X X X Z.Z.Z.Z.Z.Z.Z.m.X X X X X X & Z.Z.Z.Z.Z.Z.Z.Z.Z.k k k k k k k k k         ",
"        k k k k k k k k k X.Z.Z.Z.Z.Z.Z.Z.X X X X X X Z.Z.Z.Z.Z.Z.Z.Z.: X X X X X X Z.Z.Z.Z.Z.Z.Z.Z.*.k k k k k k k k k         ",
"        i k k k k k k k k k Z.Z.Z.Z.Z.Z.Z.X X X X X X =.Z.Z.Z.Z.Z.Z.Z.: X X X X X @ Z.Z.Z.Z.Z.Z.Z.Z.k k k k k k k k k k         ",
"          k k k k k k k k k 3.Z.Z.Z.Z.Z.Z.2 X X X X X @ m.Z.Z.Z.Z.Z.a.X X X X X X e Z.Z.Z.Z.Z.Z.Z.w.k k k k k k k k k           ",
"          k k k k k k k k k k Z.Z.Z.Z.Z.Z.x.X X X X X X X 9 {  .^ 1 X X X X X X % Z.Z.Z.Z.Z.Z.Z.Z.u k k k k k k k k s           ",
"            k k k k k k k k k *.Z.Z.Z.Z.Z.Z.=.X X X X X X X X X X X X X X X X 3 Z.Z.Z.Z.Z.Z.Z.Z.<.p k k k k k k k k             ",
"            k k k k k k k k k k Z.Z.Z.Z.Z.Z.Z.Z.E @ X X X X X X X X X X X 8 r.Z.Z.Z.Z.Z.Z.Z.Z.Z.k k k k k k k k k k             ",
"              k k k k k k k k k K Z.Z.Z.Z.Z.Z.Z.Z.Z.Z.3.X._ M M W { =.j.Z.Z.Z.Z.Z.Z.Z.Z.Z.Z.Z.! k k k k k k k k k               ",
"              k k k k k k k k k k f.Z.Z.Z.Z.Z.Z.Z.Z.Z.Z.Z.Z.Z.Z.Z.Z.Z.Z.Z.Z.Z.Z.Z.Z.Z.Z.Z.Z.x.k k k k k k k k k k               ",
"                k k k k k k k k k k Z.Z.Z.Z.Z.Z.Z.Z.Z.Z.Z.Z.Z.Z.Z.Z.Z.Z.Z.Z.Z.Z.Z.Z.Z.Z.Z.Z.k k k k k k k k k k                 ",
"                k k k k k k k k k k K Z.Z.Z.Z.Z.Z.Z.Z.Z.Z.Z.Z.Z.Z.Z.Z.Z.Z.Z.Z.Z.Z.Z.Z.Z.Z.Q k k k k k k k k k k                 ",
"                  k k k k k k k k k k O.Z.Z.Z.Z.Z.Z.Z.Z.Z.Z.Z.Z.Z.Z.Z.Z.Z.Z.Z.Z.Z.Z.Z.Z.=.k k k k k k k k k k                   ",
"                    k k k k k k k k k k u.Z.Z.Z.Z.Z.Z.Z.Z.Z.Z.Z.Z.Z.Z.Z.Z.Z.Z.Z.Z.Z.Z.f.k k k k k k k k k k                     ",
"                      k k k k k k k k k k j.Z.Z.Z.Z.Z.Z.Z.Z.Z.Z.Z.Z.Z.Z.Z.Z.Z.Z.Z.Z.x.k k k k k k k k k k                       ",
"                        k k k k k k k k k k m.Z.Z.Z.Z.Z.Z.Z.Z.Z.Z.Z.Z.Z.Z.Z.Z.Z.Z.m.k k k k k k k k k k                         ",
"                          k k k k k k k k k u m.Z.Z.Z.Z.Z.Z.Z.Z.Z.Z.Z.Z.Z.Z.Z.Z.Z.k k k k k k k k k k                           ",
"                            k k k k k k k k k k Z.Z.Z.Z.Z.Z.Z.Z.Z.Z.Z.Z.Z.Z.Z.Z.k k k k k k k k k k                             ",
"                              k k k k k k k k k u a.Z.Z.Z.Z.Z.Z.Z.Z.Z.Z.Z.Z.x.k k k k k k k k k k                               ",
"                                  k k k k k k k k k ..Z.Z.Z.Z.Z.Z.Z.Z.Z.Z.&.a k k k k k k k k                                   ",
"                                      k k k k k k k k F N.Z.Z.Z.Z.Z.Z.Z.U k k k k k k k k                                       ",
"                                          k k k k k k k k 8.Z.Z.Z.Z.u.k k k k k k k k                                           ",
"                                              k a k k k k k K Z.Z.Q k k k k k p k                                               ",
"                                                        k k k k k k k k                                                         ",
"                                                                                                                                ",
"                                                                                                                                ",
"                                                                                                                                "
};
