/* XPM */
static char *_863286290de478bf7da65675359befaFThVZRJ8ObHFinGk[] = {
/* columns rows colors chars-per-pixel */
"32 32 58 1 ",
"  c None",
". c black",
"X c #020202",
"o c gray1",
"O c gray3",
"+ c #0C0C0C",
"@ c #111111",
"# c #181818",
"$ c gray15",
"% c gray26",
"& c #505050",
"* c #6C6D70",
"= c #6D6D70",
"- c #6C6C71",
"; c #6C6D71",
": c #6D6D71",
"> c #6F6F73",
", c #717175",
"< c #727375",
"1 c #747478",
"2 c #77777A",
"3 c #78787C",
"4 c #7C7D80",
"5 c #86868A",
"6 c #88888B",
"7 c #8B8B8B",
"8 c #8B8B8E",
"9 c #8E8E8E",
"0 c #919093",
"q c #919094",
"w c #919194",
"e c #969699",
"r c gray64",
"t c #A1A2A4",
"y c #A3A3A6",
"u c #B3B2B4",
"i c #B9B9B9",
"p c #D0D0D0",
"a c #D2D2D2",
"s c #D7D7D7",
"d c gainsboro",
"f c #DFDFDF",
"g c gray88",
"h c #E1E1E1",
"j c #E4E4E4",
"k c #E9E9E9",
"l c gray93",
"z c #EEEEEE",
"x c #EFEFF0",
"c c gray95",
"v c #F6F6F6",
"b c #F8F8F8",
"n c #F9F9F9",
"m c gray98",
"M c #FBFBFB",
"N c gray99",
"B c #FEFEFE",
"V c white",
/* pixels */
"                                ",
"                                ",
"           :>>:::>***           ",
"         **:**:::**>>**         ",
"       *::::***>::>:::>:*       ",
"      **>*::>>**::**::***>      ",
"     ***>***::**:**>:**>>:*     ",
"    >wwwqqqwqqwwqqqqqqqqwqw>    ",
"    5BBBBBBBBBBBBBBBBBBBBBB8    ",
"   *5BBBBBBBBBBdzBBBBBBBBBBw*   ",
"   *1BBBBBBm........BBBBBBB4*   ",
"  *>*BBBBBB...BBB...+BBBBBB*>*  ",
"  :::BBBBBz...BBBB...BBBBBB:**  ",
"  :>*BBBBBB...aBBB..%BBBBBB:*>  ",
"  ***BBBBBBr...OBBBBBBBBBBB:*>  ",
"  >**bBBBBBBh....BBBBBBBBBb>**  ",
"  ::*<BBBBBBBB....&BBBBBBB3*>>  ",
"  ::**BBBBBBBBBi...oBBBBBB*>**  ",
"  ::>*BBBBB78gBBB...$BBBBB**>*  ",
"  ::>*1BBBg..8BBBs...BBBB3****  ",
"  **:::BBBj...BBBa...BBBB:::**  ",
"   >:>:6BBB.........BBBBq:::>   ",
"   ***>*BBBBB#...@cBBBBB::*>*   ",
"    >****BBBBBBBBBBBBBB*::*>    ",
"    *>**:yBBBBBBBBBBBBu>::**    ",
"     *:>::MBBBBBBBBBBB:*::*     ",
"      :::::MBBBBBBBBM*>*:*      ",
"       ::::*kBBBBBBx****:       ",
"         ****eBBBBy***>         ",
"           >>**BB***>           ",
"                                ",
"                                "
};
