/* XPM */
static char *_7e8fd26c5db48d6aa1d804cd1b488f8vwaiQDYafWwXCMCC[] = {
/* columns rows colors chars-per-pixel */
"128 128 60 1 ",
"  c None",
". c #000000",
"X c #0A0A0A",
"o c #131313",
"O c #1B1B1B",
"+ c #232323",
"@ c #2B2B2B",
"# c #343434",
"$ c #3C3C3C",
"% c #444444",
"& c #4A4A4A",
"* c #535353",
"= c #5B5B5B",
"- c #646464",
"; c #6C6C6E",
": c #6D6D71",
"> c #706F73",
", c #6F7073",
"< c #727275",
"1 c #757579",
"2 c #77787B",
"3 c #7B7B7E",
"4 c #7E7E82",
"5 c #838384",
"6 c #858589",
"7 c #8B8B8D",
"8 c #8D8D90",
"9 c #939395",
"0 c #969699",
"q c #97989A",
"w c #9A9A9B",
"e c #9F9FA2",
"r c #9FA0A2",
"t c #A3A3A4",
"y c #A6A6A9",
"u c #ABABAC",
"i c #AEAEB0",
"p c #B3B3B5",
"a c #B7B7B9",
"s c #B8B7B9",
"d c #BBBBBC",
"f c #BEBEC0",
"g c #C3C3C4",
"h c #C6C6C8",
"j c #CCCCCC",
"k c #CFCFD0",
"l c #CFD0D1",
"z c #D3D4D5",
"x c #D7D6D8",
"c c #DCDCDC",
"v c #DFDFE0",
"b c #DFE0E1",
"n c #E2E2E2",
"m c #E7E7E8",
"M c #ECECEC",
"N c #EFEFF0",
"B c #F4F4F4",
"V c #F7F7F8",
"C c #F8F7F8",
"Z c #FFFFFF",
/* pixels */
"                                                                                                                                ",
"                                                                                                                                ",
"                                                                                                                                ",
"                                                                                                                                ",
"                                                                                                                                ",
"                                                                                                                                ",
"                                                             ::::::                                                             ",
"                                                     :;::::::::::::::::::::                                                     ",
"                                                 ::::::::::::::::::::::::::::::                                                 ",
"                                              :::::::::::::::::::::::::::::::::::;                                              ",
"                                           ::::::::::::::::::::::::::::::::::::::::::                                           ",
"                                         :::::::::::::::::::::::::::::::::::::::::::::::                                        ",
"                                      ::::::::::::::::::::::::::::::::::::::::::::::::::::                                      ",
"                                    ::::::::::::::::::::::::::::::::::::::::::::::::::::::::                                    ",
"                                   ::::::::::::>:::::::::::::::::::::::::::::::::::::::::::::                                   ",
"                                 ::::::::::::::::::::::::::::::::::::::::::::::::::::::::::::::                                 ",
"                                ::::::::::::::::::::::::::::::::::::::::::::::::::::::::::::::::                                ",
"                              ::::::::::::::::::::::::::::::::::::::::::::::::::::::::::::::::::::                              ",
"                             ::::::::::::::::::::::::::::::::::::::::::::::::::::::::::::::::::::::                             ",
"                            ::::::::::::::::::::::::::::::::::::::::::::::::::::::::::::::::::::::::;                           ",
"                          ;:::::::::::::::::::::::::::::::::::::::::::::::::::::::::::::::::::::::::::                          ",
"                         ::::::::::::::::::::::::::::::::::::::::::::::::::::::::::::::::::::::::::::::                         ",
"                        ::::::::::::::::::::::::::::::::::::::::::::::::::::::::::::::::::::::::::::::::                        ",
"                       :::::::::::::::::::::::::::::::::::::::::::::::::::::::::::::::::::::::::::::::::;                       ",
"                      ::::::::::::::::::::::::::::::::::::::::::::::::::::::::::::::::::::::::::::::::::::                      ",
"                     ::::::::::::::::::::::::::::::::::::::::::::::::::::::::::::::::::::::::::::::::::::::                     ",
"                    ::::::::::::::::::::::::::::::::::::::::::::::::::::::::::::::::::::::::::::::::::::::::                    ",
"                    :::::::::::::::::::::::::::::::::::,:::::::::::::::::::::::::::::::::::::::::::::::::::::                   ",
"                   ::::::::::::::::::::::::::::::::::::::::::::::::::::::::::::::::::::::::::::::::::::::::::                   ",
"                  ::::::::::::::::::::::::::::::::::::::::::::::::::::::::::::::::::::::::::::::::::::::::::::                  ",
"                 :0zzzzzzzzzzzzzzzzzzzzzzzzzzzzzzzzzzzxzzzzzzzzzxzzzzzzzzzzzzzzzxzzzzzzzzzzzzzzzzzzzzzzzzzzzzr:                 ",
"                 :pZZZZZZZZZZZZZZZZZZZZZZZZZZZZZZZZZZZZZZZZZZZZZZZZZZZZZZZZZZZZZZZZZZZZZZZZZZZZZZZZZZZZZZZZZZd;:                ",
"                ::aZZZZZZZZZZZZZZZZZZZZZZZZZZZZZZZZZZZZZZZZZZZZZZZZZZZZZZZZZZZZZZZZZZZZZZZZZZZZZZZZZZZZZZZZZZg::                ",
"               :::dZZZZZZZZZZZZZZZZZZZZZZZZZZZZZZZZZZZZZZZZZZZZZZZZZZZZZZZZZZZZZZZZZZZZZZZZZZZZZZZZZZZZZZZZZZh:::               ",
"               :::fZZZZZZZZZZZZZZZZZZZZZZZZZZZZZZZZZZZZZZZZZZZZZZZZZZZZZZZZZZZZZZZZZZZZZZZZZZZZZZZZZZZZZZZZZZj:::               ",
"              ::::fZZZZZZZZZZZZZZZZZZZZZZZZZZZZZZZZZZZZZZZZZZZZZZZZZZZZZZZZZZZZZZZZZZZZZZZZZZZZZZZZZZZZZZZZZZj::::              ",
"             ;::::fZZZZZZZZZZZZZZZZZZZZZZZZZZZZZZZZZZZZZZZZZZZZZZZZZZZZZZZZZZZZZZZZZZZZZZZZZZZZZZZZZZZZZZZZZZk:::::             ",
"             :::::fZZZZZZZZZZZZZZZZZZZZZZZZZZZZZZZZZZZZZZZZZZZZZZZCZZZZZZZZZZZZZZZZZZZZZZZZZZZZZZZZZZZZZZZZZZj:::::             ",
"            ::::::dZZZZZZZZZZZZZZZZZZZZZZZZZZZZZZZZZZZCva71=**&***=;6wdMZZZZZZZZZZZZZZZZZZZZZZZZZZZZZZZZZZZZZj::::::            ",
"            ::::::dZZZZZZZZZZZZZZZZZZZZZZZZZZZZZZZCva=o................X@5jMZZZZZZZZZZZZZZZZZZZZZZZZZZZZZZZZZg::::::            ",
"            ::::::pZZZZZZZZZZZZZZZZZZZZZZZZZZZZZZp&oX.....................X+-nZZZZZZZZZZZZZZZZZZZZZZZZZZZZZZZg:::::::           ",
"           ;::::::iZZZZZZZZZZZZZZZZZZZZZZZZZZZZh&............................o6MZZZZZZZZZZZZZZZZZZZZZZZZZZZZZd:::::::           ",
"           :::::::eZZZZZZZZZZZZZZZZZZZZZZZZZZZ5X...............................@cZZZZZZZZZZZZZZZZZZZZZZZZZZZZs:::::::           ",
"          ::::::::eZZZZZZZZZZZZZZZZZZZZZZZZZC;..................................@zZZZZZZZZZZZZZZZZZZZZZZZZZZZu::::::::          ",
"          ::::::::wZZZZZZZZZZZZZZZZZZZZZZZZZ1..............@-7ww5&X..............@CZZZZZZZZZZZZZZZZZZZZZZZZZZy::::::::          ",
"          ::::::::9ZZZZZZZZZZZZZZZZZZZZZZZZs............O7cZZZZZZZMu$.............9ZZZZZZZZZZZZZZZZZZZZZZZZZZe:::::::::         ",
"         :::::::::8CZZZZZZZZZZZZZZZZZZZZZZZ*...........ojZZZZZZZZZZZB&............$CZZZZZZZZZZZZZZZZZZZZZZZZZ0:::::::::         ",
"         :::::::::5CZZZZZZZZZZZZZZZZZZZZZZMX...........<ZZZZZZZZZZZZZM#...........oBZZZZZZZZZZZZZZZZZZZZZZZZZ8:::::::::         ",
"         :::::::::3VZZZZZZZZZZZZZZZZZZZZZZu............sZZZZZZZZZZZZZZ9............nZZZZZZZZZZZZZZZZZZZZZZZZZ5:::::::::;        ",
"        :::::::::::BZZZZZZZZZZZZZZZZZZZZZZ6............gZZZZZZZZZZZZZZNX...........cZZZZZZZZZZZZZZZZZZZZZZZZZ1::::::::::        ",
"        :::::::::::vZZZZZZZZZZZZZZZZZZZZZZ6............0ZZZZZZZZZZZZZZZ$...........MZZZZZZZZZZZZZZZZZZZZZZZZB:::::::::::        ",
"        :::::::::::gZZZZZZZZZZZZZZZZZZZZZZt............$CZZZZZZZZZZZZZZ>..........OBZZZZZZZZZZZZZZZZZZZZZZZZz:::::::::::        ",
"        :::::::::::tZZZZZZZZZZZZZZZZZZZZZZMX...........XpZZZZZZZZZZZZZZ3..........%CZZZZZZZZZZZZZZZZZZZZZZZZp:::::::::::        ",
"       ::::::::::::6ZZZZZZZZZZZZZZZZZZZZZZZ$............ozZZZZZZZZZZZZZ6..........2ZZZZZZZZZZZZZZZZZZZZZZZZZ9::::::::::::       ",
"       :::::::::::::CZZZZZZZZZZZZZZZZZZZZZZw.............+aZZZZZZZZZZZZ6..........jZZZZZZZZZZZZZZZZZZZZZZZZZ1::::::::::::       ",
"       :::::::::::::nZZZZZZZZZZZZZZZZZZZZZZB+..............0BZZZZZZZZZZjwwqqwqwwwwCZZZZZZZZZZZZZZZZZZZZZZZZM:::::::::::::       ",
"       :::::::::::::kZZZZZZZZZZZZZZZZZZZZZZZvO.............X%cZZZZZZZZZZZZZZZZZZZZZZZZZZZZZZZZZZZZZZZZZZZZZc:::::::::::::       ",
"       :::::::::::::dZZZZZZZZZZZZZZZZZZZZZZZZtX..............OpCZZZZZZZZZZZZZZZZZZZZZZZZZZZZZZZZZZZZZZZZZZZj:::::::::::::       ",
"       :::::::::::::tZZZZZZZZZZZZZZZZZZZZZZZZCuX..............X=CZZZZZZZZZZZZZZZZZZZZZZZZZZZZZZZZZZZZZZZZZZp:::::::::::::       ",
"       :::::::::::::7ZZZZZZZZZZZZZZZZZZZZZZZZZZwo...............#dZZZZZZZZZZZZZZZZZZZZZZZZZZZZZZZZZZZZZZZZZ0:::::::::::::       ",
"       :::::::::::::1ZZZZZZZZZZZZZZZZZZZZZZZZZZZhX................3ZZZZZZZZZZZZZZZZZZZZZZZZZZZZZZZZZZZZZZZZ4:::::::::::::;      ",
"      :::::::::::::::cZZZZZZZZZZZZZZZZZZZZZZZZZZZz%................%jZZZZZZZZZZZZZZZZZZZZZZZZZZZZZZZZZZZZZM:::::::::::::::      ",
"      :::::::::::::::tZZZZZZZZZZZZZZZZZZZZZZZZZZZZB;X...............ouBZZZZZZZZZZZZZZZZZZZZZZZZZZZZZZZZZZZd:::::::::::::::      ",
"      :::::::::::::::3ZZZZZZZZZZZZZZZZZZZZZZZZZZZZZZf@................=MZZZZZZZZZZZZZZZZZZZZZZZZZZZZZZZZZZ8:::::::::::::::      ",
"      :::::::::::::::<mZZZZZZZZZZZZZZZZZZZZZZZZZZZZZZV-X...............+sCZZZZZZZZZZZZZZZZZZZZZZZZZZZZZZZB2:::::::::::::::      ",
"      ::::::::::::::::lZZZZZZZZZZZZZZZZZZZZZZZZZZZZZZZCdo...............X;BZZZZZZZZZZZZZZZZZZZZZZZZZZZZZZc<:::::::::::::::      ",
"      ::::::::::::::::iZZZZZZZZZZZZZZZZZZZZZZZZZZZZZZZZZn=X...............$jZZZZZZZZZZZZZZZZZZZZZZZZZZZZZf::::::::::::::::      ",
"      ::::::::::::::::6ZZZZZZZZZZZZZZZZZZZZZZZZZZZZZZZZZZCuX...............odZZZZZZZZZZZZZZZZZZZZZZZZZZZZ0::::::::::::::::      ",
"       ::::::::::::::::mZZZZZZZZZZZZZZZZZZZZZZZZZZZZZZZZZZZz&X...............6ZZZZZZZZZZZZZZZZZZZZZZZZZZB<:::::::::::::::       ",
"       ::::::::::::::::uZZZZZZZZZZZZZZZZZZZZZZZZZZZZZZZZZZZZZ6X...............=CZZZZZZZZZZZZZZZZZZZZZZZZf::::::::::::::::       ",
"       ::::::::::::::::5BZZZZZZZZZZZZZZZZZZZZZZZZZZZZZZZZZZZZZj$..............X-ZZZZZZZZZZZZZZZZZZZZZZZC9::::::::::::::::       ",
"       ::::::::::::::::1mZZZZZZZZZZZZZZZZZZZZZZZZZZZZZZZZZZZZZZC;X..............-CZZZZZZZZZZZZZZZZZZZZZB4::::::::::::::::       ",
"       :::::::::::::::::dZZZZZZZZZZZZZZZZZZZZZZZZZZZZZZZZZZZZZZZCpo.............X9ZZZZZZZZZZZZZZZZZZZZZz:::::::::::::::::       ",
"       :::::::::::::::::5ZZZZZZZZZZZZZZZZZZMnnnnnnnnnnZZZZZZZZZZZZj+.............XjZZZZZZZZZZZZZZZZZZZZ8:::::::::::::::::       ",
"       ::::::::::::::::::xZZZZZZZZZZZZZZZZZ-oooooooooOMZZZZZZZZZZZZM@.............&CZZZZZZZZZZZZZZZZZZm::::::::::::::::::       ",
"        :::::::::::::::::eZZZZZZZZZZZZZZZZBo.........XBZZZZZZZZZZZZZjo............XzZZZZZZZZZZZZZZZZZZp:::::::::::::::::        ",
"        :::::::::::::::::4BZZZZZZZZZZZZZZZt..........XBZZZZZZZZZZZZZZs.............1ZZZZZZZZZZZZZZZZZC7:::::::::::::::::        ",
"        ::::::::::::::::::jZZZZZZZZZZZZZZZ*..........XnZZZZZZZZZZZZZZB#............OZZZZZZZZZZZZZZZZZn::::::::::::::::::        ",
"        ::::::::::::::::::4ZZZZZZZZZZZZZZCO..........XcZZZZZZZZZZZZZZZ;.............BZZZZZZZZZZZZZZZZ9::::::::::::::::::        ",
"        :::::::::::::::::::kZZZZZZZZZZZZZCO..........XdZZZZZZZZZZZZZZZ7.............BZZZZZZZZZZZZZZZb:::::::::::::::::::        ",
"         ::::::::::::::::::eZZZZZZZZZZZZZBO...........0ZZZZZZZZZZZZZZZ7............XCZZZZZZZZZZZZZZZi:::::::::::::::::;         ",
"         ::::::::::::::::::<BZZZZZZZZZZZZZ#...........#ZZZZZZZZZZZZZZZ1............&ZZZZZZZZZZZZZZZC3::::::::::::::::::         ",
"          ::::::::::::::::::qZZZZZZZZZZZZZ<............5CZZZZZZZZZZZZB@...........XgZZZZZZZZZZZZZZZi:::::::::::::::::::         ",
"          :::::::::::::::::::vZZZZZZZZZZZZmX...........XwZZZZZZZZZZZM$............#BZZZZZZZZZZZZZZM1::::::::::::::::::          ",
"          :::::::::::::::::::yZZZZZZZZZZZZZ=.............%qjBZZZBca5+............XsZZZZZZZZZZZZZZZd:::::::::::::::::::          ",
"           ::::::::::::::::::>NZZZZZZZZZZZZcX...................................XuZZZZZZZZZZZZZZZC1:::::::::::::::::::          ",
"           :::::::::::::::::::0ZZZZZZZZZZZZZz@.................................OuCZZZZZZZZZZZZZZZu:::::::::::::::::::           ",
"           :::::::::::::::::::<cZZZZZZZZZZZZZm%X.............................X%cZZZZZZZZZZZZZZZZm1:::::::::::::::::::           ",
"            :::::::::::::::::::9ZZZZZZZZZZZZZZCf%..........................X&dCZZZZZZZZZZZZZZZZZe:::::::::::::::::::            ",
"            ::::::::::::::::::::fZZZZZZZZZZZZZZZZj1#O...................O$2jZZZZZZZZZZZZZZZZZZZz::::::::::::::::::::            ",
"             :::::::::::::::::::5NZZZZZZZZZZZZZZZZZBmk7=#X..........#=wzMBZZZZZZZZZZZZZZZZZZZZC7:::::::::::::::::::             ",
"             ::::::::::::::::::::uZZZZZZZZZZZZZZZZZZZZZZZCBMnkjjcMBZZZZZZZZZZZZZZZZZZZZZZZZZZZf::::::::::::::::::::             ",
"              ::::::::::::::::::::kZZZZZZZZZZZZZZZZZZZZZZZZZZZZZZZZZZZZZZZZZZZZZZZZZZZZZZZZZZn::::::::::::::::::::              ",
"               :::::::::::::::::::6CZZZZZZZZZZZZZZZZZZZZZZZZZZZZZZZZZZZZZZZZZZZZZZZZZZZZZZZZZ0:::::::::::::::::::               ",
"               ::::::::::::::::::::uZZZZZZZZZZZZZZZZZZZZZZZZZZZZZZZZZZZZZZZZZZZZZZZZZZZZZZZZg::::::::::::::::::::               ",
"                ::::::::::::::::::::jZZZZZZZZZZZZZZZZZZZZZZZZZZZZZZZZZZZZZZZZZZZZZZZZZZZZZZc,:::::::::::::::::::                ",
"                ::::::::::::::::::::5BZZZZZZZZZZZZZZZZZZZZZZZZZZZZZZZZZZZZZZZZZZZZZZZZZZZZC8::::::::::::::::::::                ",
"                 ::::::::::::::::::::8VZZZZZZZZZZZZZZZZZZZZZZZZZZZZZZZZZZZZZZZZZZZZZZZZZZZr::::::::::::::::::::                 ",
"                  ::::::::::::::::::::pZZZZZZZZZZZZZZZZZZZZZZZZZZZZZZZZZZZZZZZZZZZZZZZZZZh<:::::::::::::::::::                  ",
"                   ::::::::::::::::::::hZZZZZZZZZZZZZZZZZZZZZZZZZZZZZZZZZZZZZZZZZZZZZZZZc::::::::::::::::::::                   ",
"                   ::::::::::::::::::::2vZZZZZZZZZZZZZZZZZZZZZZZZZZZZZZZZZZZZZZZZZZZZZZM6::::::::::::::::::::                   ",
"                    ;:::::::::::::::::::3BZZZZZZZZZZZZZZZZZZZZZZZZZZZZZZZZZZZZZZZZZZZZC7:::::::::::::::::::;                    ",
"                     ::::::::::::::::::::8BZZZZZZZZZZZZZZZZZZZZZZZZZZZZZZZZZZZZZZZZZZCw::::::::::::::::::::                     ",
"                      ::::::::::::::::::::0BZZZZZZZZZZZZZZZZZZZZZZZZZZZZZZZZZZZZZZZZZu::::::::::::::::::::                      ",
"                       ::::::::::::::::::::tZZZZZZZZZZZZZZZZZZZZZZZZZZZZZZZZZZZZZZZZp::::::::::::::::::::                       ",
"                        ::::::::::::::::::::yBZZZZZZZZZZZZZZZZZZZZZZZZZZZZZZZZZZZZCd::::::::::::::::::::                        ",
"                         ::::::::::::::::::::tZZZZZZZZZZZZZZZZZZZZZZZZZZZZZZZZZZZZa::::::::::::::::::::                         ",
"                          ::::::::::::::::::::tBZZZZZZZZZZZZZZZZZZZZZZZZZZZZZZZZCa::::::::::::::::::;:                          ",
"                           ::::::::::::::::::::eZZZZZZZZZZZZZZZZZZZZZZZZZZZZZZZZa::::::::::::::::::::                           ",
"                             :::::::::::::::::::9NZZZZZZZZZZZZZZZZZZZZZZZZZZZZVt:::::::::::::::::::                             ",
"                              :::::::::::::::::::5MZZZZZZZZZZZZZZZZZZZZZZZZZZB9:::::::::::::::::::                              ",
"                               :::::::::::::::::::4cZZZZZZZZZZZZZZZZZZZZZZZZM7:::::::::::::::::::                               ",
"                                 :::::::::::::::::::gZZZZZZZZZZZZZZZZZZZZZZz<::::::::::::::::::                                 ",
"                                   ::::::::::::::::::wBZZZZZZZZZZZZZZZZZZCi<::::::::::::::::::                                  ",
"                                    ::::::::::::::::::9vZZZZZZZZZZZZZZZZMt::::::::::::::::::                                    ",
"                                      :::::::::::::::::1jZZZZZZZZZZZZZZv4:::::::::::::::::                                      ",
"                                        :::::::::::::::::rMZZZZZZZZZZBi<:::::::::::::::;                                        ",
"                                           ::::::::::::::::kZZZZZZZZn3::::::::::::::::                                          ",
"                                             ::::::::::::::<0nZZZZMy1:::::::::::::;                                             ",
"                                                :::::::::::::<dBCl3:::::::::::::                                                ",
"                                                     ::::::::::68::::::::::                                                     ",
"                                                           ::::::::::                                                           ",
"                                                                                                                                ",
"                                                                                                                                ",
"                                                                                                                                ",
"                                                                                                                                ",
"                                                                                                                                ",
"                                                                                                                                "
};
