/* XPM */
static char *_b7d0c9c075a4d88da01ddadb93f1834i1x2zKREt5STnD2p[] = {
/* columns rows colors chars-per-pixel */
"16 16 14 1 ",
"  c None",
". c black",
"X c #101010",
"o c #131313",
"O c gray17",
"+ c #6C6C70",
"@ c #6C6D70",
"# c #6D6D71",
"$ c #B1B1B1",
"% c gray92",
"& c gray93",
"* c gray94",
"= c gray96",
"- c white",
/* pixels */
"                ",
"     ######     ",
"   ##########   ",
"  ############  ",
"  ------------  ",
" #---=.o..----# ",
" #&--..--.---*# ",
" ##---..-----## ",
" ##----O.o---## ",
" ##--..--.%--## ",
" ###-..-$.--### ",
"  ##--------##  ",
"  ###------###  ",
"   ###----###   ",
"     ##--##     ",
"                "
};
